<svg data-name="Group 16011" xmlns="http://www.w3.org/2000/svg" width="24" height="24" viewBox="0 0 24 24">
    <path data-name="Rectangle 5423" style="fill:none" d="M0 0h24v24H0z"/>
    <g data-name="Group 16370">
        <path data-name="Path 19978" d="M1912.907 425.446h7.886l3.756 3.6v10.939h-12z" transform="translate(-1906.507 -421.198)" style="fill:#fff"/>
        <g data-name="Document 2">
            <path data-name="Path 19977" d="M126.408 69.312a1.072 1.072 0 0 0-.17-.286l-4.074-4.3a1.125 1.125 0 0 0-.326-.23 1.02 1.02 0 0 0-.462-.1H113.6a1.113 1.113 0 0 0-1.1 1.12v15.717a1.152 1.152 0 0 0 1.1 1.167h11.817a1.132 1.132 0 0 0 1.079-1.167V69.791a1.122 1.122 0 0 0-.088-.479zm-11.574.441c0-.07.087-.1.165-.1h3.442c.078 0 .136.028.136.1v.506a.145.145 0 0 1-.136.145H115a.179.179 0 0 1-.165-.145zm0 6c0-.07.087-.1.165-.1h5.94c.078 0 .117.028.117.1v.506c0 .066-.034.145-.117.145H115a.179.179 0 0 1-.165-.145zm7.778 3.506c0 .066-.034.145-.117.145H115a.179.179 0 0 1-.165-.145v-.506c0-.07.087-.1.165-.1h7.5c.078 0 .117.028.117.1zm1.556-6c0 .066-.034.145-.117.145H115a.179.179 0 0 1-.165-.145v-.506c0-.07.087-.1.165-.1h9.051c.078 0 .117.028.117.1v.506zm-2.28-3.558a.557.557 0 0 1-.54-.53v-3.093l3.461 3.623z" transform="translate(-107.5 -61.4)" style="fill:#6964e2"/>
        </g>
    </g>
</svg>
