<svg xmlns="http://www.w3.org/2000/svg" width="24" height="24" viewBox="0 0 24 24">
    <defs>
        <style>
            .cls-3{fill:#fff}
        </style>
    </defs>
    <g id="Group_16372" data-name="Group 16372" transform="translate(-22 -217)">
        <path id="Rectangle_5420" data-name="Rectangle 5420" transform="translate(22 217)" style="fill:none" d="M0 0h24v24H0z"/>
        <g id="_3144041_package_parcel_return_icon" data-name="3144041_package_parcel_return_icon" transform="translate(18 213)">
            <g id="Group_16387" data-name="Group 16387" transform="translate(8 9)">
                <path id="Path_19990" data-name="Path 19990" d="M20 9H8.706A.708.708 0 0 0 8 9.706v10.588a.708.708 0 0 0 .706.706H20a.708.708 0 0 0 .706-.706V9.706A.708.708 0 0 0 20 9z" transform="translate(-8 -9)" style="fill:#6964e2"/>
                <path id="Path_19991" data-name="Path 19991" class="cls-3" d="M24.176 13.235h-2.823a.333.333 0 0 1-.353-.353V9h3.529v3.882a.333.333 0 0 1-.353.353z" transform="translate(-16.412 -9)"/>
            </g>
            <g id="Group_16389" data-name="Group 16389" transform="translate(14.365 12.412)">
                <path id="Path_19992" data-name="Path 19992" d="M36 38.123h2.894a3.464 3.464 0 0 0 3.459-3.459v-.106a3.464 3.464 0 0 0-3.459-3.458h-1.129" transform="translate(-32.718 -27.535)" style="stroke:#fff;stroke-linecap:square;stroke-miterlimit:10;stroke-width:2px;fill:none"/>
                <g id="Group_16388" data-name="Group 16388">
                    <path id="Path_19993" data-name="Path 19993" class="cls-3" d="M32.806 21 26.7 24.529l6.106 3.529z" transform="translate(-26.7 -21)"/>
                </g>
            </g>
        </g>
    </g>
</svg>
