<svg id="Group_16012" data-name="Group 16012" xmlns="http://www.w3.org/2000/svg" width="24" height="24" viewBox="0 0 24 24">
    <defs>
        <style>
            .cls-3{fill:#fff}
        </style>
    </defs>
    <path id="Rectangle_5424" data-name="Rectangle 5424" style="fill:none" d="M0 0h24v24H0z"/>
    <g id="Group_11524" data-name="Group 11524" transform="translate(3 3)">
        <g id="Group_11360" data-name="Group 11360">
            <path id="Path_18419" data-name="Path 18419" d="M25.42 20.382a3.74 3.74 0 0 0-3.222-.7l-6.288-6.26a3.629 3.629 0 0 0-4.736-4.355.172.172 0 0 0-.078.272l1.941 1.944-.388 1.478-1.475.389-1.941-1.945a.172.172 0 0 0-.272.078 3.621 3.621 0 0 0 1.126 4.044 3.74 3.74 0 0 0 3.222.7l6.25 6.26a3.629 3.629 0 0 0 4.736 4.355.172.172 0 0 0 .078-.272l-1.941-1.944.388-1.478 1.475-.389 1.94 1.941a.172.172 0 0 0 .272-.078 3.574 3.574 0 0 0-1.087-4.04z" transform="translate(-8.747 -8.854)" style="fill:#6964e2"/>
            <path id="Path_18420" data-name="Path 18420" class="cls-3" d="M21.369 24.535 19.695 22.9 9.534 32.516a.8.8 0 0 0 0 1.129l1.09 1.09a.8.8 0 0 0 1.129 0z" transform="translate(-8.348 -18.254)"/>
            <path id="Line_241" data-name="Line 241" transform="translate(10.304 5.461)" style="stroke:#fff;stroke-linecap:round;stroke-linejoin:round;stroke-width:2px;fill:none" d="m0 0 1.947 1.908"/>
            <path id="Path_18421" data-name="Path 18421" class="cls-3" d="m43.658 14-.545-.545a.376.376 0 0 0-.545 0l-.195.195-.078-.273a4.406 4.406 0 0 0-1.012-1.752A4.211 4.211 0 0 0 39.1 10.5l-1.83-.311c-.117-.039-.234.039-.35.117a.406.406 0 0 0 .078.623l.467.234a3.083 3.083 0 0 1 1.518 2.024l-1.908 1.908 1.09 1.09 1.908-1.908a1.3 1.3 0 0 1 1.324.311l-.234.234a.376.376 0 0 0 0 .545l.545.545a.376.376 0 0 0 .545 0l1.363-1.363a.35.35 0 0 0 .042-.549z" transform="translate(-26.738 -8.86)"/>
        </g>
    </g>
</svg>
