<svg xmlns="http://www.w3.org/2000/svg" width="24" height="24" viewBox="0 0 24 24">
    <defs>
        <style>
            .cls-3{fill:#6964e2}
        </style>
    </defs>
    <g id="Group_16374" data-name="Group 16374" transform="translate(-22 -261)">
        <g id="Group_16332" data-name="Group 16332" transform="translate(-1595 30)">
            <g id="Group_16330" data-name="Group 16330" transform="translate(1617 231)">
                <path id="Rectangle_5420" data-name="Rectangle 5420" style="fill:none" d="M0 0h24v24H0z"/>
            </g>
        </g>
        <g id="Weight_2" data-name="Weight 2" transform="translate(14.102 255.947)">
            <circle id="Ellipse_592" data-name="Ellipse 592" cx="5.583" cy="5.583" r="5.583" transform="translate(15.297 13.306)" style="fill:#fff"/>
            <path id="Path_19967" data-name="Path 19967" class="cls-3" d="m28.825 24.49-2.374-9.4A3.693 3.693 0 0 0 23 12.53h-1.663a2.891 2.891 0 0 0 1.654-2.57 3.1 3.1 0 0 0-6.186 0 2.892 2.892 0 0 0 1.654 2.571H16.8a3.693 3.693 0 0 0-3.45 2.563l-2.374 9.4a2.025 2.025 0 0 0 2.155 2.563h13.538a2.025 2.025 0 0 0 2.156-2.567zM19.9 8.656a1.306 1.306 0 1 1-1.387 1.3 1.349 1.349 0 0 1 1.387-1.3zm0 15.029a4.023 4.023 0 0 1-4.142-3.893A4.023 4.023 0 0 1 19.9 15.9a4.023 4.023 0 0 1 4.142 3.893 4.023 4.023 0 0 1-4.142 3.892z"/>
            <path id="Path_19966" data-name="Path 19966" class="cls-3" d="M28.282 35.32a.376.376 0 0 0 .026-.138.341.341 0 0 0-.035-.161.373.373 0 0 0-.087-.11.327.327 0 0 0-.11-.06.362.362 0 0 0-.107-.018.336.336 0 0 0-.219.08l-.925.741v-1.326a.341.341 0 0 0-.1-.243.34.34 0 0 0-.112-.074.353.353 0 0 0-.136-.027.343.343 0 0 0-.344.344v2.657a.35.35 0 0 0 .027.136.345.345 0 0 0 .074.112.341.341 0 0 0 .244.1.351.351 0 0 0 .348-.349v-.679l.84.9a.373.373 0 0 0 .136.094.412.412 0 0 0 .154.031.376.376 0 0 0 .107-.018.308.308 0 0 0 .107-.058.316.316 0 0 0 .082-.107.361.361 0 0 0 .034-.161.391.391 0 0 0-.025-.134.292.292 0 0 0-.078-.116l-.777-.75.786-.558a.248.248 0 0 0 .09-.108z" transform="translate(-8.715 -16.217)"/>
            <path id="Path_19968" data-name="Path 19968" class="cls-3" d="M33.975 36.022a.32.32 0 0 0-.214.08.336.336 0 0 0-.116.174l-.062-.049a.877.877 0 0 0-.136-.087 1.05 1.05 0 0 0-.5-.118 1 1 0 0 0-.418.094 1.214 1.214 0 0 0-.37.259 1.327 1.327 0 0 0-.266.4 1.221 1.221 0 0 0-.1.5 1.2 1.2 0 0 0 .1.5 1.365 1.365 0 0 0 .266.4 1.2 1.2 0 0 0 .37.261 1.009 1.009 0 0 0 .418.094.909.909 0 0 0 .274-.036 1.057 1.057 0 0 0 .192-.078.875.875 0 0 0 .123-.078.129.129 0 0 1 .064-.038c.018 0 .027.031.027.094v.049a.416.416 0 0 1-.058.221.565.565 0 0 1-.145.161.654.654 0 0 1-.19.1.617.617 0 0 1-.192.033.549.549 0 0 1-.234-.047 1.4 1.4 0 0 1-.185-.1l-.161-.1a.3.3 0 0 0-.16-.047.35.35 0 0 0-.136.027.363.363 0 0 0-.114.074.34.34 0 0 0-.078.112.333.333 0 0 0-.029.136.376.376 0 0 0 .1.262.94.94 0 0 0 .259.194 1.4 1.4 0 0 0 .335.123 1.48 1.48 0 0 0 .337.043 1.5 1.5 0 0 0 .484-.08 1.363 1.363 0 0 0 .429-.234 1.216 1.216 0 0 0 .308-.373 1.027 1.027 0 0 0 .118-.5v-2.082a.343.343 0 0 0-.344-.344zm-.393 1.478a.57.57 0 0 1-.123.183.579.579 0 0 1-.181.123.559.559 0 0 1-.223.045.571.571 0 0 1-.409-.167.579.579 0 0 1 0-.817.571.571 0 0 1 .409-.167.559.559 0 0 1 .223.045.578.578 0 0 1 .3.306.569.569 0 0 1 .045.226.56.56 0 0 1-.041.223z" transform="translate(-11.944 -17.452)"/>
        </g>
    </g>
</svg>
