<svg xmlns="http://www.w3.org/2000/svg" width="48" height="48" viewBox="0 0 48 48">
    <g data-name="Group 16328">
        <g data-name="Group 16202">
            <g data-name="Group 16116">
                <g data-name="Group 11441" transform="translate(.364 .364)">
                    <circle data-name="Ellipse 462" cx="24" cy="24" r="24" transform="translate(-.364 -.364)" style="fill:#fff"/>
                </g>
            </g>
        </g>
        <g data-name="472977_delivery_gps_package_tracker_tracking_icon">
            <path data-name="Path 19885" d="M73 16c-4.971 0-9 3.765-9 8.414a8.019 8.019 0 0 0 1.7 4.927l6.377 8.213a1.2 1.2 0 0 0 1.868 0l6.35-8.212A8.019 8.019 0 0 0 82 24.414C82 19.765 77.971 16 73 16zm0 14.826a6.651 6.651 0 0 1-6.848-6.417 6.862 6.862 0 0 1 13.7 0A6.651 6.651 0 0 1 73 30.826zm-5.087-8.177 4.7 2.01v4.517l-4.7-2.01zm5.478 2.01 4.7-2.01v4.517l-4.7 2.01zm-.362-5.017 5.058 2.131-5.058 2.133-5.116-2.133z" transform="translate(-49 -3)" style="fill:#6964e2"/>
        </g>
    </g>
</svg>
